<svg xmlns="http://www.w3.org/2000/svg" viewBox="0 0 720 430">
  <defs>
    <linearGradient id="dbg" x1="0%" y1="0%" x2="100%" y2="100%">
      <stop offset="0%" stop-color="#1a5276"/>
      <stop offset="100%" stop-color="#154360"/>
    </linearGradient>
    <filter id="ws" x="-5%" y="-5%" width="120%" height="125%">
      <feDropShadow dx="0" dy="3" stdDeviation="7" flood-color="#000" flood-opacity="0.2"/>
    </filter>
  </defs>

  <!-- ── FONDO ESCRITORIO ── -->
  <rect width="720" height="390" fill="url(#dbg)" rx="8 8 0 0"/>

  <!-- ── ÍCONO: CARPETA / MIS DOCUMENTOS ── -->
  <g transform="translate(18,20)">
    <rect x="0" y="7" width="50" height="36" rx="4" fill="#f59e0b"/>
    <path d="M0 7 Q0 2 4 2 L18 2 L24 7 Z" fill="#d97706"/>
    <rect x="3" y="10" width="44" height="29" rx="3" fill="#fde68a"/>
  </g>
  <text x="43" y="72" text-anchor="middle" fill="rgba(255,255,255,0.88)" font-size="9.5" font-family="'Segoe UI',sans-serif">Mis Documentos</text>

  <!-- ── ÍCONO: PAPELERA ── -->
  <g transform="translate(20,92)">
    <rect x="4" y="12" width="38" height="28" rx="3" fill="#9ca3af"/>
    <rect x="0" y="8" width="46" height="6" rx="2" fill="#d1d5db"/>
    <rect x="14" y="3" width="18" height="7" rx="2" fill="#d1d5db"/>
    <line x1="14" y1="20" x2="14" y2="34" stroke="#e5e7eb" stroke-width="1.5"/>
    <line x1="23" y1="20" x2="23" y2="34" stroke="#e5e7eb" stroke-width="1.5"/>
    <line x1="32" y1="20" x2="32" y2="34" stroke="#e5e7eb" stroke-width="1.5"/>
  </g>
  <text x="43" y="138" text-anchor="middle" fill="rgba(255,255,255,0.88)" font-size="9.5" font-family="'Segoe UI',sans-serif">Papelera</text>

  <!-- ── ÍCONO: ACCESO DIRECTO ── -->
  <g transform="translate(18,155)">
    <rect width="50" height="44" rx="5" fill="#60a5fa" opacity="0.85"/>
    <line x1="12" y1="28" x2="12" y2="10" stroke="white" stroke-width="2.5" stroke-linecap="round"/>
    <line x1="12" y1="10" x2="32" y2="10" stroke="white" stroke-width="2.5" stroke-linecap="round"/>
    <line x1="13" y1="11" x2="32" y2="28" stroke="white" stroke-width="2.5" stroke-linecap="round"/>
    <rect x="1" y="31" width="14" height="11" rx="2" fill="white"/>
    <text x="8" y="40" text-anchor="middle" fill="#2563eb" font-size="9" font-family="sans-serif" font-weight="bold">↗</text>
  </g>
  <text x="43" y="208" text-anchor="middle" fill="rgba(255,255,255,0.88)" font-size="9.5" font-family="'Segoe UI',sans-serif">Acceso directo</text>

  <!-- ── VENTANA ── -->
  <g transform="translate(108,16)" filter="url(#ws)">
    <rect width="598" height="355" rx="7" fill="white"/>
    <!-- Barra de título -->
    <rect width="598" height="36" rx="7 7 0 0" fill="#1d4ed8"/>
    <rect y="22" width="598" height="14" fill="#1d4ed8"/>
    <text x="14" y="23" fill="white" font-size="12.5" font-family="'Segoe UI',sans-serif" font-weight="600">Explorador de archivos</text>
    <!-- Minimizar -->
    <rect x="524" y="0" width="36" height="36" fill="rgba(255,255,255,0.07)"/>
    <line x1="531" y1="18" x2="553" y2="18" stroke="white" stroke-width="2" stroke-linecap="round"/>
    <!-- Maximizar -->
    <rect x="560" y="0" width="36" height="36" fill="rgba(255,255,255,0.07)"/>
    <rect x="568" y="11" width="20" height="14" rx="1.5" fill="none" stroke="white" stroke-width="1.5"/>
    <!-- Cerrar -->
    <rect x="562" y="0" width="36" height="36" fill="transparent"/>
    <rect x="562" y="0" width="36" height="36" rx="0 7 0 0" fill="#dc2626"/>
    <line x1="571" y1="11" x2="589" y2="25" stroke="white" stroke-width="2" stroke-linecap="round"/>
    <line x1="589" y1="11" x2="571" y2="25" stroke="white" stroke-width="2" stroke-linecap="round"/>
    <!-- Contenido -->
    <rect x="0" y="36" width="598" height="319" fill="#f9fafb" rx="0 0 7 7"/>
    <!-- Panel lateral -->
    <rect x="0" y="36" width="138" height="319" fill="#f3f4f6" rx="0 0 0 7"/>
    <rect x="6" y="46" width="126" height="22" rx="4" fill="#dbeafe"/>
    <text x="19" y="62" fill="#1d4ed8" font-size="11" font-family="'Segoe UI',sans-serif">📁  Documentos</text>
    <text x="19" y="84" fill="#6b7280" font-size="11" font-family="'Segoe UI',sans-serif">🖼  Imágenes</text>
    <text x="19" y="104" fill="#6b7280" font-size="11" font-family="'Segoe UI',sans-serif">🎵  Música</text>
    <text x="19" y="124" fill="#6b7280" font-size="11" font-family="'Segoe UI',sans-serif">📥  Descargas</text>
    <!-- Archivos -->
    <g transform="translate(150,48)">
      <rect width="74" height="64" rx="4" fill="white" stroke="#e5e7eb" stroke-width="1"/>
      <rect y="0" width="74" height="38" rx="4 4 0 0" fill="#dbeafe"/>
      <text x="37" y="27" text-anchor="middle" font-size="20">📄</text>
      <text x="37" y="56" text-anchor="middle" fill="#6b7280" font-size="9.5" font-family="sans-serif">informe.docx</text>
    </g>
    <g transform="translate(238,48)">
      <rect width="74" height="64" rx="4" fill="white" stroke="#e5e7eb" stroke-width="1"/>
      <rect y="0" width="74" height="38" rx="4 4 0 0" fill="#dcfce7"/>
      <text x="37" y="27" text-anchor="middle" font-size="20">📊</text>
      <text x="37" y="56" text-anchor="middle" fill="#6b7280" font-size="9.5" font-family="sans-serif">datos.xlsx</text>
    </g>
    <g transform="translate(326,48)">
      <rect width="74" height="64" rx="4" fill="white" stroke="#e5e7eb" stroke-width="1"/>
      <rect y="0" width="74" height="38" rx="4 4 0 0" fill="#fef3c7"/>
      <text x="37" y="27" text-anchor="middle" font-size="20">📁</text>
      <text x="37" y="56" text-anchor="middle" fill="#6b7280" font-size="9.5" font-family="sans-serif">Proyectos</text>
    </g>
    <g transform="translate(414,48)">
      <rect width="74" height="64" rx="4" fill="white" stroke="#e5e7eb" stroke-width="1"/>
      <rect y="0" width="74" height="38" rx="4 4 0 0" fill="#fce7f3"/>
      <text x="37" y="27" text-anchor="middle" font-size="20">🖼</text>
      <text x="37" y="56" text-anchor="middle" fill="#6b7280" font-size="9.5" font-family="sans-serif">foto.jpg</text>
    </g>
    <g transform="translate(502,48)">
      <rect width="74" height="64" rx="4" fill="white" stroke="#e5e7eb" stroke-width="1"/>
      <rect y="0" width="74" height="38" rx="4 4 0 0" fill="#ede9fe"/>
      <text x="37" y="27" text-anchor="middle" font-size="20">🎵</text>
      <text x="37" y="56" text-anchor="middle" fill="#6b7280" font-size="9.5" font-family="sans-serif">cancion.mp3</text>
    </g>

    <!-- ── Etiquetas DE LA VENTANA ── -->
    <!-- Badge: Barra de título -->
    <rect x="12" y="38" width="90" height="16" rx="4" fill="rgba(255,255,200,0.2)" stroke="rgba(255,255,150,0.5)" stroke-width="0.8"/>
    <text x="57" y="50" text-anchor="middle" fill="#fef9c3" font-size="9.5" font-family="'Segoe UI',sans-serif" font-weight="600">Barra de título</text>

    <!-- Badge: Botones de control -->
    <rect x="502" y="38" width="90" height="16" rx="4" fill="rgba(255,255,200,0.2)" stroke="rgba(255,255,150,0.5)" stroke-width="0.8"/>
    <text x="547" y="50" text-anchor="middle" fill="#fef9c3" font-size="9.5" font-family="'Segoe UI',sans-serif" font-weight="600">Botones control</text>
  </g>

  <!-- Badge: Ventana activa (sobre el marco) -->
  <rect x="338" y="3" width="104" height="16" rx="4" fill="rgba(17,24,39,0.65)"/>
  <text x="390" y="15" text-anchor="middle" fill="white" font-size="10" font-family="'Segoe UI',sans-serif" font-weight="600">Ventana activa</text>
  <line x1="390" y1="19" x2="390" y2="16" stroke="rgba(255,255,255,0.7)" stroke-width="1.2"/>

  <!-- Badge: Íconos del escritorio (sobre los íconos izquierda) -->
  <rect x="4" y="4" width="80" height="16" rx="4" fill="rgba(17,24,39,0.65)"/>
  <text x="44" y="16" text-anchor="middle" fill="white" font-size="10" font-family="'Segoe UI',sans-serif" font-weight="600">Íconos</text>

  <!-- ── BARRA DE TAREAS ── -->
  <rect x="0" y="390" width="720" height="40" fill="#111827" rx="0 0 8 8"/>

  <!-- Botón de Inicio -->
  <rect x="6" y="396" width="44" height="28" rx="4" fill="#2563eb"/>
  <rect x="12" y="402" width="9" height="7" rx="1" fill="white"/>
  <rect x="23" y="402" width="9" height="7" rx="1" fill="rgba(255,255,255,0.8)"/>
  <rect x="12" y="411" width="9" height="7" rx="1" fill="rgba(255,255,255,0.8)"/>
  <rect x="23" y="411" width="9" height="7" rx="1" fill="rgba(255,255,255,0.65)"/>

  <!-- Apps en barra de tareas -->
  <rect x="57" y="398" width="30" height="24" rx="3" fill="#3b82f6" opacity="0.75"/>
  <text x="72" y="415" text-anchor="middle" fill="white" font-size="13">📁</text>
  <rect x="93" y="398" width="30" height="24" rx="3" fill="#10b981" opacity="0.75"/>
  <text x="108" y="415" text-anchor="middle" fill="white" font-size="13">🌐</text>

  <!-- Reloj -->
  <text x="706" y="408" text-anchor="end" fill="rgba(255,255,255,0.88)" font-size="11" font-family="'Segoe UI',sans-serif">10:30 AM</text>
  <text x="706" y="421" text-anchor="end" fill="rgba(255,255,255,0.55)" font-size="9.5" font-family="'Segoe UI',sans-serif">16/04/2026</text>

  <!-- ── Etiquetas de la barra de tareas ── -->
  <!-- Botón de Inicio -->
  <text x="28" y="396" text-anchor="middle" fill="rgba(255,255,255,0)" font-size="1">.</text>
  <rect x="0" y="373" width="80" height="16" rx="4" fill="rgba(17,24,39,0.72)"/>
  <text x="40" y="385" text-anchor="middle" fill="white" font-size="9.5" font-family="'Segoe UI',sans-serif" font-weight="600">Botón de Inicio</text>
  <line x1="28" y1="390" x2="28" y2="396" stroke="rgba(255,255,255,0.7)" stroke-width="1.2" stroke-dasharray="3 2"/>

  <!-- Barra de Tareas -->
  <rect x="296" y="373" width="98" height="16" rx="4" fill="rgba(17,24,39,0.72)"/>
  <text x="345" y="385" text-anchor="middle" fill="white" font-size="9.5" font-family="'Segoe UI',sans-serif" font-weight="600">Barra de Tareas</text>
  <line x1="345" y1="390" x2="345" y2="396" stroke="rgba(255,255,255,0.7)" stroke-width="1.2" stroke-dasharray="3 2"/>

  <!-- Reloj del sistema -->
  <rect x="622" y="373" width="98" height="16" rx="4" fill="rgba(17,24,39,0.72)"/>
  <text x="671" y="385" text-anchor="middle" fill="white" font-size="9.5" font-family="'Segoe UI',sans-serif" font-weight="600">Reloj del sistema</text>
  <line x1="680" y1="390" x2="680" y2="396" stroke="rgba(255,255,255,0.7)" stroke-width="1.2" stroke-dasharray="3 2"/>
</svg>
